<svg xmlns="http://www.w3.org/2000/svg" id="Layer_1" data-name="Layer 1" viewBox="0 0 3211.97 3440.08"><defs><style>      .cls-1 {        fill: #fff;      }    </style></defs><path class="cls-1" d="M2621.75,2251.76c-.02-.14-.06-.28-.1-.41-.02-.07-.04-.14-.07-.21-.04-.09-.09-.17-.13-.25-.05-.09-.08-.18-.14-.26l-45.75-61.89-20.2-92.92s-.01-.03-.02-.04c0-.02,0-.04,0-.06l-22.45-85.25,284.43-359.86c.04-.06.07-.13.11-.19.02-.03.04-.07.06-.1.01-.02.03-.05.04-.07.01-.03.04-.04.05-.07l.02-.03s0-.02.01-.03l.05-.1s.01-.02.02-.03l145.83-287.65s0-.03.02-.05c.03-.06.03-.12.06-.17.08-.21.15-.43.17-.65,0-.07,0-.15,0-.22,0-.22-.02-.44-.08-.65-.01-.04,0-.08-.01-.12l-33.17-108.34c-.04-.13-.11-.24-.16-.36-.03-.06-.03-.12-.07-.17,0-.01-.02-.02-.02-.03-.13-.22-.3-.41-.5-.58-.03-.03-.06-.04-.1-.07-.16-.12-.33-.23-.52-.31-.08-.04-.17-.07-.25-.1-.06-.02-.11-.05-.17-.07-.08-.02-.16-.01-.24-.03-.11-.02-.22-.04-.34-.04-.23,0-.46.02-.68.08,0,0-.01,0-.02,0l-266.47,76.47-27.62-74.13s-.01-.03-.02-.05l-.05-.13s-.03-.05-.04-.08c-.05-.12-.1-.23-.17-.34-.05-.08-.11-.15-.16-.23-.03-.04-.05-.08-.09-.12l-87.85-100.88s-.04-.03-.06-.05c-.03-.04-.06-.07-.1-.11l-154.08-164.59-195-360.75-80.72-228.93c-.36-1-1.38-1.66-2.4-1.66l-145.49,1.5-118.97-35.03s-.04,0-.06,0c-.04-.01-.08-.01-.12-.02-.02,0-.04-.02-.06-.02l-152.88-29.56c-.79-.15-1.58.08-2.17.61l-96.04,88.08-196.33-114.84c-.13-.08-.28-.13-.43-.18-.08-.03-.15-.07-.23-.09-.02,0-.04-.02-.07-.03l-94.81-21.88,17.87-99.8s0,0,0,0c0-.03.02-.06.03-.1.06-.43,0-.86-.16-1.25-.01-.03-.03-.06-.04-.09-.08-.19-.18-.36-.31-.52,0-.01-.02-.02-.03-.03-.06-.07-.11-.15-.17-.22l-79.24-79.24c-.31-.29-.68-.5-1.08-.61-.05-.01-.1-.02-.15-.03-.17-.04-.34-.06-.51-.07-.07,0-.13,0-.2,0-.1,0-.19,0-.29.01-.06.01-.12.04-.18.06-.04.01-.09,0-.13.02l-93.19,29.7-162.71,5.89c-.06,0-.12.03-.18.04-.1.01-.19.02-.29.04-.06.01-.11.03-.16.05-.1.03-.2.08-.3.12-.05.02-.1.03-.14.06l-.11.06s-.03,0-.04.02c0,0,0,0-.01,0l-130.84,68.9-178.55,7.77s-.08.02-.12.02c-.06,0-.12,0-.18.01-.07.01-.13.04-.2.05-.15.04-.29.09-.43.15-.04.02-.08.02-.12.04,0,0,0,0-.01.01-.03.02-.06.05-.1.07-.13.08-.25.17-.37.28-.05.04-.11.07-.16.12-.03.03-.05.06-.07.09-.1.11-.18.24-.26.37-.03.05-.08.1-.11.15l-.02.03s-.02.03-.03.05l-.03.07h0s0,0,0,0l-36.25,72.98-112.33,85.9c-.64.49-1,1.25-.97,2.07l3.37,102.5-65.73,85.35s-.04.03-.06.05l-99.55,126.99s-.02.04-.03.05c-.03.04-.05.1-.08.14,0,0,0,0,0,.01-.01.02-.02.03-.03.05l-110.41,181.49s0,0,0,.01c-.01.02-.02.05-.03.07-.03.06-.05.13-.08.19,0,.02-.03.04-.03.06,0,.02,0,.04-.01.05-.05.11-.09.23-.12.35,0,.03,0,.05-.01.08,0,.03,0,.05-.01.08-.01.07-.02.13-.03.2-.01.14,0,.27,0,.41,0,.02,0,.03,0,.05v.08s.01.04.02.06l28.38,263.57-37.85,167.55c-.03.16-.04.32-.04.47,0,.02-.01.04-.01.06,0,0,0,.01,0,.02,0,.06,0,.11,0,.17,0,.05.02.1.02.15.02.16.05.31.1.46.01.04.03.07.05.1.02.05.04.11.07.16.07.14.15.28.24.41.03.05.07.09.11.14,0,.01.02.02.03.03,0,0,0,.02.01.02l.02.03s.05.07.08.1c0,0,.02.01.03.02l340.83,383.03s.03.02.04.04c.06.07.13.13.2.19.09.08.19.16.3.23.06.04.11.07.17.1.13.07.26.12.4.16.05.02.1.04.16.05.19.05.39.08.6.08h.03c.06,0,.11-.02.17-.02.1,0,.2-.02.31-.03l205.16-41.78,112.45,9.12h.2c.19,0,.38-.03.58-.07.14-.03.26-.09.39-.14.03-.02.07-.02.11-.04h.02s.07-.04.1-.06l165.07-79.5,106.07,86.33c.06.05.11.08.17.12.06.05.12.11.18.15.09.05.19.07.29.11.04.02.08.04.12.05.02,0,.04,0,.06.02.16.05.31.08.48.09.06,0,.12.03.18.04l144.24,7.46h.13c.15,0,.31-.03.46-.05l229.03-42.75-256.04,192.35s-.03.04-.05.05c-.06.05-.1.1-.16.15-.09.08-.18.16-.25.26-.07.09-.13.2-.19.3-.04.07-.09.14-.13.22-.04.09-.06.18-.09.27-.03.11-.07.21-.09.32,0,.01,0,.03-.01.04l-17.27,104.63c-.01.08.01.15,0,.23-.01.18-.01.36.01.55.02.11.04.21.07.31.05.17.11.33.2.49.06.1.12.2.19.29.04.06.06.12.11.17l158.05,178.34,52.63,247.53-89.95,133.79s0,0,0,0h0s-.05.08-.05.08c-.13.2-.22.42-.29.64-.02.05-.03.1-.04.15-.04.16-.06.33-.07.5,0,.04,0,.08,0,.12,0,.04,0,.08,0,.12,0,0,0,.01,0,.02.01.17.03.34.08.51.01.04.03.07.04.11,0,.02,0,.03,0,.05l127.9,369.39,34.1,154.35c.02.09.07.17.1.26.02.07.05.14.08.22.12.26.26.5.45.71,0,0,0,.01.01.02l61.68,64.73,49.98,165.24c.06.21.14.41.26.6.02.03.04.06.06.08.06.09.12.19.19.27l74.84,87.85s.09.08.13.12c.05.05.08.12.13.16.03.03.08.04.11.06.18.15.39.26.6.35.07.03.13.05.2.07.24.08.49.13.75.13.08,0,.15,0,.26-.03.12-.01.22-.05.34-.07.07-.02.14-.02.22-.05.23-.08.44-.19.63-.33.02-.01.05-.02.07-.03l116.71-87.53,83.93-19.36,85.92-3.23s.08-.02.13-.02c.14-.01.28-.02.43-.05.05-.01.08-.04.13-.06.02,0,.04-.02.06-.02.01,0,.02-.01.04-.02.06-.02.12-.05.18-.08.11-.05.22-.11.32-.18.06-.04.12-.1.18-.14.07-.06.15-.11.21-.17,0,0,.02-.01.03-.02l94.36-95.97s0,0,0,0l102.33-87.71c.1-.08.17-.19.25-.29.05-.06.11-.11.15-.17.11-.15.19-.32.26-.49.02-.05.06-.1.08-.15l29.58-85.04,155.44-179.34c.49-.56.69-1.28.59-1.99l-19.99-136.55,13.28-74.82,204.49-148.04s.07-.06.1-.09c.06-.05.12-.11.18-.16.1-.1.19-.2.27-.31.04-.06.09-.12.12-.18.08-.13.14-.26.19-.4.02-.06.05-.12.07-.19.06-.2.1-.41.11-.63l2.71-162.53c0-.1-.02-.19-.03-.28,0-.04,0-.08-.01-.11ZM2614.74,2250.18l-165.54,21.94,96.9-62.01,26.52-16.96,42.13,57.02ZM2570.41,2188.63l-12.45,7.96-111.43,71.26,55.57-87.17,49.66-77.87,18.65,85.81ZM2480.66,1488.71l323.82,157.83-296.4.37-75.74-110.28-73.76-107.4,122.07,59.49ZM2365.56,1427.04l304.27,36.35,44.54,5.32,56.6,104.02,38.41,70.6-249.91-121.79-193.9-94.51ZM2377.39,1465.43l126.91,184.83,12.6,194.26,9.33,143.96-167.96-550.88,19.11,27.83ZM2485.09,1870.72l41.9,137.44-349.15,96.71,115.46-447.78,58.03-225.04,133.76,438.68ZM1671.48,1255.81l308.61,148.66,3.63,235.13-464.24-457.01,152,73.21ZM1535.85,1184.91l109.1,32.18,408.48,120.5,276.46,81.56-346.68-18.75-447.36-215.48ZM2168.35,2071.37l-52.37-227.37,227.94-403.34-126.93,492.26-42.54,164.96-6.11-26.5ZM2184.98,2294.43l-152.89,65.64,23.71-41.11,116.61-202.18,12.57,177.65ZM2140.95,1974.7l30.2,131.11-196.79-6.68-135.74-4.61,273.22-246.16,29.12,126.34ZM1909.57,1921.93l192.33-71.39-270.17,243.45-203.93-67.46,281.77-104.6ZM1629.65,2020.51l232.32-241.83,123.94-128.99,55,85.73,68.6,106.94-401.77,149.16-78.08,28.99ZM1832.46,2101.26l36.85,51.05,151.6,210.06-337.79-29.05,56.86-88.38,92.47-143.68ZM1828.48,2098.18l-148.42,230.63-56.54-298.4,204.96,67.78ZM1701.41,2379.28l245.79,421.82-227.06-161.17-37.32-292.55,18.59,31.89ZM1948.58,2808.23l-93.48,13.02-129.89,18.09-4.8-193.06,228.18,161.95ZM1683.36,2338.37l339.88,29.25-69.42,434.92-270.46-464.17ZM1837.37,2099.5l199.77,6.78,132.93,4.52-87.4,151.55-56.75,98.38-188.55-261.24ZM2183.34,2300.58l-74.27,210.13-61.45-111.58-17.94-32.57,153.66-65.98ZM2139.54,2439.53l47.31-133.86.28,1.52,43.78,234.58-118.04-26.78,26.67-75.47ZM2177.29,2113.29l100.48,63.82,152.84,97.09-240.21,19.09c1.35-25.27-10.47-152.29-13.11-180ZM2188.6,1705.33l-75.41,133.46-123.38-192.31,77.28-47.22,277.11-169.3-155.59,275.37ZM2224.16,1497.42l-235.41,143.82-3.65-235.73,357.81,19.35-118.76,72.56ZM1524.99,1176.48l98.87,1.09,333.09,3.68,104.64,64.9,272.44,168.99-809.04-238.66ZM1766.02,838.91l614.91,149.5-422.2,187.12-192.7-336.63ZM1953.33,1176.2l-441.42-4.88,50.47-67.29,198.3-264.37,192.66,336.54ZM1506.35,1170.4l-437.53-285.99,201.15-13.6,485.69-32.83-249.31,332.42ZM928.43,1044.33l-368.04,182.82-28.69-369.93,396.73,187.11ZM532.71,852.14l64.77-86.02,71.43-94.85,257.76,366.68-393.96-185.82ZM675.05,671.29l291.99,80.45,64.72,17.83-98.27,269.33-258.44-367.61ZM1034.5,776.7l23.99,105.12-116.53,148.5,92.54-253.62ZM1008.11,587.31l371.46-3.6-342.62,180.31-28.84-176.71ZM1037.92,769.19l336.03-176.87-137.53,126.07-173.74,159.25-24.76-108.45ZM1187.71,871.36l-109.32,7.39,362.23-133.46,140.55-51.78,173.21,139.53-566.67,38.32ZM1072.29,875.65l182.23-167.05,135.73-124.41,185.48,105.99-503.44,185.47ZM1012.45,582.25l222.74-176.98,149.29,173.38-372.03,3.6ZM1167.81,275.26l96,9,34.16,3.2-41.96,73.43-20.47,35.82-67.73-121.45ZM1230.88,398.66l-195.69-25.93,55.94-42.48,71.38-54.2,68.37,122.61ZM1081.52,383.92l147.8,19.6-220.99,175.59,22.69-201.88,50.5,6.69ZM1003.78,574.73l-144.07-356.12,166.48,156.78-22.41,199.35ZM1003.92,592.79l28.02,171.62-353-97.25,260.84-63.78,63.33-15.48.8,4.89ZM795.03,633.62l-121.69,29.75,68.01-153.96,254.2,75.19-200.52,49.02ZM735.03,511.35l-66.61,150.75-49.33-65.41-85.55-113.45,202.76,25.22-1.28,2.9ZM528.56,849.33l-160.74-154.17,121.72-10.37,174.07-14.81-135.05,179.35ZM555.07,1223.62l-298.26-346.88,269.74-20.94,28.52,367.82ZM557.47,1233.79l230.52,205.3-535.16-132.35,286.47-68.6,18.18-4.35ZM618.19,1281.15l-53.14-47.33,364.35,14.25,286.34,11.21-418.03,181.74-179.52-159.87ZM605.16,1230.39l-37.11-1.45,194.25-96.49,171.66-85.26,142.2,103.48,142.49,103.69-613.48-23.97ZM1074.96,1143.62l-137.19-99.83,122.81-156.54,160.13,362.42-145.76-106.05ZM1204.4,1200.34l-137.5-311.21,434.14,283.78-272.86,81.25-23.78-53.82ZM1279.61,1244.08l225.19-67.06,28.78,249.43,22.26,193.01-324.55-360.98,48.32-14.39ZM1523.49,1295.32l-13.24-114.78,469.66,462.33-72.89-3.18-345.53-15.11-38-329.25ZM1692.94,1635.34l287.74,12.6-358.72,373.33-59.79-391.65,130.77,5.72ZM1675.8,2333.3l-183.08,22.14,126.67-319.8,56.4,297.66ZM1552.81,2353.22l123.78-14.97,25.21,197.66,12.36,96.97-170.93-211.2-49.6-61.3,59.18-7.16ZM1715.31,2642.97l4.78,192.68-92.82-99.82-218.51-235.01,306.55,142.15ZM1723.4,2847.21l165.9,219.35-60.79,3.04-202.26,10.08,35.87-85.85,61.27-146.61ZM1806.83,2949.21l-79.5-105.1,20.36-2.84,204.22-28.44-22.96,97.49-35.99,152.74-86.12-113.85ZM1956.12,2816.84l61.08,112.79,56.16,103.74-175.86,32.3,58.63-248.82ZM1961.08,2815.44l180.94,86.22,113.95,54.31-117.03,50.09-60.63,25.95-117.23-216.57ZM1960.06,2795.23l67.43-422.28,79.25,143.91-146.67,278.37ZM2007.21,2716.47l103.67-196.76,61.35,13.9,56.72,12.86-147.06,139.63-117.4,111.46,42.73-81.09ZM2234.45,2548.17l104.61,60.31,52.87,30.49-425.85,164,268.37-254.8ZM2192.65,2309.4l-2.07-11.09,81.13-6.45,161.17-12.8-115.35,151.94-82.03,108.03-42.86-229.63ZM2321.98,2199.27l-139.45-88.6,365.72-11.68-30.78,48.28-79.95,125.38-115.54-73.39ZM2549.68,2093.93l-354.47,11.32,333.16-92.28,21.31,80.96ZM2532.22,2003.21l-15.53-239.41-7.25-111.91,102.52-.12,198.2-.23-277.93,351.67ZM2815.27,1643.64l-57.96-106.48-37.86-69.57,4.98-2.14,231.46-99.24-140.63,277.43ZM2958.2,1359.76l-197.64,84.75-33.75,14.47,200.12-201.4,31.27,102.17ZM2919.53,1257.92l-202.72,204.01-30.37-73.24-23.66-57.08,256.75-73.69ZM2711.98,1463.37l-32.6-3.89-315.98-37.75,294.55-88.7,54.03,130.35ZM2656.11,1328.33l-141.02,42.47-145.69,43.87,158.41-95.86,101.82-61.61,26.47,71.13ZM2627.08,1252.88l-138.42,83.77-128.48,77.75,122.63-172.64,60.46-85.1,83.81,96.22ZM2350.44,1419.42l-305.97-189.77-78.59-48.75,572.16-25.55-187.6,264.07ZM2537.51,1150.35l-566.66,25.3,417.22-184.94,149.44,159.63ZM2383.8,983.95l-615.46-149.63,424.03-204.49,191.43,354.12ZM2110.86,399.91l76.53,216.98-150.14-150.73-64.58-64.85,138.2-1.4ZM1967.41,403.19l110.52,110.94,111.22,111.66-422.94,203.97,97.48-206.68,103.71-219.9ZM1849.39,366.95l113.78,33.5-120.16,254.79-76.12,161.39,82.5-449.69ZM1695.31,336.9l140.21,27.13-151.15,36.1-78.42,18.72,89.35-81.94ZM1844.27,367.11l-84.22,458.95-159.48-400.75,243.71-58.2ZM1599.01,434.99l156.06,392.14-170.85-137.61,14.79-254.52ZM1579.39,686.49l-123.99-70.85-60.96-34.84,199.89-151.96-14.95,257.65ZM1401.56,312.02l191.1,111.77-144.07,109.54-56.01,42.58,8.98-263.89ZM1396.41,315.99l-8.8,258.6-148.23-172.12,58.21-33.46,98.94-56.86-.13,3.85ZM1392.4,308.75l-150.14,86.29,61.07-106.86,89.07,20.57ZM1300,282.61l-48.97-4.58-79.54-7.47,107.92-61.26,37.54-21.3-16.94,94.61ZM1241.9,108.25l74.34,74.37-62.76,35.62-84.66,48.04,73.08-158.03ZM1236.46,108.06l-71.67,155.07-14.39-127.63,86.06-27.44ZM1145.44,136.32l5.46,48.43,9.25,82.1-168.35-124.96,153.64-5.57ZM1159.11,272.34l-7.25,5.51-121.32,92.13-22.28-118.11-20.05-106.37,170.9,126.85ZM982.72,143.46l26.7,141.56,15.52,82.28-95.93-90.33-71.66-67.47,125.37-66.05ZM851.42,211.5l146.07,361.06-143.38-159.35-174.74-194.22,172.05-7.49ZM997.35,579.91l-165.56-48.97-89.72-26.54-24.47-107.42-39.05-171.45,318.81,354.38ZM673.07,224.09l59.37,260.65-92.28-194.38,32.91-66.27ZM637.17,295.74l34.45,72.55,64.12,135.05-18.8-2.34-184.91-23.01,105.15-182.26ZM628.94,299.95l-64.44,111.73-34.32,59.5-3.04-93.37,101.8-77.86ZM527.96,484.16l34.84,46.2,97.89,129.83-93.81-45.63-101.39-49.33,62.47-81.07ZM462.37,569.3l197.3,95.98-292.07,24.88,94.77-120.86ZM362.59,697.11l90.91,87.19,69.57,66.74-60.25,4.68-206.45,16.04,106.22-174.65ZM255.04,882.35l295.31,343.45-267.89-88.93-27.42-254.52ZM281.97,1141.99l267.03,88.67-12.53,3-290.94,69.66,36.44-161.33ZM583.15,1686.08l-333.7-375.02,543.2,134.35-152.41,175.09-57.08,65.58ZM788.35,1597.02l-2.04,48.92-196.39,39.99,112.9-129.7,91.6-105.22-6.07,146.01ZM791.35,1645.71l7.97-191.76,97.99,200.38-105.96-8.61ZM902.65,1653.81l-99.96-204.38,32.62,16.01,227.06,111.46-159.72,76.91ZM1066.97,1573.55l-139-68.21-124.76-61.23,418.28-181.86-154.52,311.31ZM1173.52,1659.48l-102.3-83.24,85.32-171.92,65.91-132.77-48.93,387.92ZM1216.24,1360.83l11.61-92,89.4,282.54-59.3,45.89-79.26,61.33,37.56-297.75ZM1317.57,1580.2l-.38,88.89-134.86-6.97,36.72-28.42,98.61-76.29-.09,22.79ZM1322.21,1668.71l.46-113.01,226.21,70.7-226.67,42.31ZM1322.17,1550.28l-89.51-282.82,318.62,354.43-229.12-71.6ZM1557.39,1631.5l59.56,390.18-317.87-196.1,258.31-194.08ZM1296.48,1829.89l307.24,189.54-323.51-90.81,16.28-98.73ZM1284.88,1935.14l94.16,26.43,233.85,65.65-176.42,78.96-151.59-171.04ZM1438.7,2110.67l57.47-25.73,119.47-53.47-126.09,318.33-50.85-239.14ZM1489.01,2362.64l98.14,121.26,121.89,150.63-307.09-142.36,87.05-129.52ZM1404.48,2503.58l33.85,36.4,279.16,300.27-169.08,17.64-20.52,2.14-123.41-356.44ZM1529.23,2864.92l186.02-19.39,1.11-.12-154.63,166.6-32.49-147.09ZM1563.76,3017.21l144.91-156.12,6.36-6.85-93.46,223.63-57.8-60.66ZM1625.74,3084.73l260.9-13.01-212.73,172.26-48.16-159.25ZM1746.98,3331.73l-70.83-83.15,209.7-169.79-138.87,252.94ZM1862.27,3246.85l-107.04,80.29,134.09-244.24-7.74,46.94-19.31,117.01ZM1867.66,3244.99l27.37-165.98,50.89,147.92-78.25,18.06ZM1950.96,3226.15l-50.41-146.53,39.61,43.93,89.83,99.64-79.03,2.96ZM2034.02,3220.2l-75.98-84.27-59-65.44,85.14-15.65,89.76-16.48-28.3,128.94-11.61,52.88ZM2039.72,3217.54l38.5-175.34,48.46,86.9-86.97,88.45ZM2130.48,3125.58l-48.9-87.69,63.26,2.62,81,3.36-95.36,81.71ZM2230.54,3039.04l-142.19-5.88,169.48-72.54-27.29,78.42ZM2260.77,2952.7l-100.48-47.88-198.76-94.72,195.35-75.23,236.2-90.95-93.85,219.03-38.46,89.75ZM2415.13,2775.65l-144.46,166.66,83.34-194.47,42.54-99.26,18.58,127.07ZM2395.91,2635.48l-65.68-37.86-84.69-48.85,57.47,5.91,105.31,10.83-12.42,69.98ZM2409.02,2560.53l-170.25-17.51,196.2-258.39-11.4,121.18-14.56,154.72ZM2414.29,2558l26.06-277.11,69.23,53.78,102.8,79.88-198.1,143.44ZM2614.15,2409.58l-116.28-90.34-53.31-41.43,103.65-13.76,68.53-9.09-2.58,154.61Z"></path><path class="cls-1" d="M2965.15,2268.79c-.72-.43-1.61-.49-2.35-.13l-61.58,29.51c-.36.18-.67.45-.9.76-.02.03-.04.06-.06.09-.1.15-.19.3-.25.47-.01.03-.03.05-.04.07l-17.84,46.92-39.24,59.72-92.55,40.07c-.87.38-1.46,1.23-1.51,2.17l-5.52,107.11s0,0,0,0c0,.05.01.09.01.14,0,.1-.02.19-.01.29l6.29,51.35-59.41,57.45c-.77.77-.97,1.94-.49,2.91l20.47,41.64s.04.09.06.14c.01.03.02.05.03.08l64.13,115.44c.15.27.36.49.6.69.07.06.14.12.22.17.09.06.17.1.27.15.1.05.2.09.3.12.07.03.15.05.22.07.19.05.39.08.59.08.08,0,.18,0,.26-.03.02,0,.03-.01.05-.01.1-.01.21-.01.31-.04l81.28-20.52s.05-.02.07-.02c.11-.03.22-.06.33-.11.23-.1.44-.23.63-.38,0,0,.02,0,.03-.02l42.31-37c.18-.16.32-.35.44-.54.01-.02.03-.05.04-.07.1-.17.18-.34.24-.53,0-.01.01-.02.02-.04l.02-.06s.01-.04.02-.05l27.72-91.13s.01-.09.02-.13c0-.03.02-.05.03-.07,0-.03,0-.05,0-.08,0-.03.02-.05.02-.08l16.17-104.38s0-.07,0-.1c0-.06.01-.12.02-.19,0-.05,0-.1,0-.15l1.22-135.43,23.96-34.75s.02-.04.04-.06c.06-.1.12-.2.17-.31.01-.03.04-.06.05-.09.03-.07.05-.14.07-.21.01-.04.03-.08.04-.12.04-.13.06-.26.07-.39,0-.04,0-.07.01-.11,0-.08,0-.16,0-.24,0,0,0-.01,0-.02l-5.88-128.01c-.05-.82-.51-1.58-1.23-2.02ZM2902.93,2305.8l28.7,41.9,29.58,43.2-63.65-38.19-10.15-6.09,15.5-40.82ZM2884.41,2352.14l54.96,78.05-39.61-10.27-51.17-13.28,35.82-54.5ZM2844.49,2412.83l75.05,122.44,19.9,32.47-69.24-5.2-119.91-9.02,94.2-140.68ZM2846.69,2636.55l16.1,8.17,55.5,28.17-94.23,4.02,22.63-40.36ZM2820.83,2672.43l-1.68,2.98-59.02-62.44,81.79,21.84-21.1,37.61ZM2845.84,2630.18l-52.31-40.61-39.6-30.76,141.87,10.66,40.63,3.05-90.59,57.66ZM2753.74,2450.25l84.02-36.38-88.98,132.87,4.96-96.49ZM2749.01,2561.35l85.37,66.28-79.87-21.34-5.49-44.95ZM2753.11,2612.85l5.29,5.6,56.55,59.82-98.31,26.33,3.27-8.24,33.19-83.51ZM2695,2667.11l50.61-48.95-5.02,12.63-28.37,71.38-17.22-35.06ZM2775.89,2817.35l-59.68-107.43,99.76-26.73-8.79,29.42-31.3,104.75ZM2780.27,2820.26l18.94-63.41,20.51-68.64,35.01,113.27-74.45,18.78ZM2859.14,2798.83l-33.83-109.45,71.3,76.71-37.47,32.74ZM2899.08,2761.36l-73.88-79.48,99.32-4.24-25.44,83.72ZM2926.01,2671.17l-46.55-23.61-28.71-14.57,90.06-57.31-14.79,95.49ZM2941.7,2561.81l-77.12-125.81-14.61-23.84,92.85,24.11-1.12,125.54ZM2945.32,2429.94l-.96-1.36-51.16-72.65,71.22,42.73,1.75,1.05-20.85,30.23ZM2939.52,2350.35l-33.5-48.94,55.52-26.6,5.29,115.42-27.32-39.89Z"></path></svg>